<svg width="27" height="23" viewBox="0 0 27 23" fill="none" xmlns="http://www.w3.org/2000/svg">
<path d="M19.125 21.625V19.375C19.125 18.1815 18.6509 17.0369 17.807 16.193C16.9631 15.3491 15.8185 14.875 14.625 14.875H5.625C4.43153 14.875 3.28693 15.3491 2.44302 16.193C1.59911 17.0369 1.125 18.1815 1.125 19.375V21.625" stroke="#D63384" stroke-width="2" stroke-linecap="round" stroke-linejoin="round"/>
<path d="M10.125 10.375C12.6103 10.375 14.625 8.36028 14.625 5.875C14.625 3.38972 12.6103 1.375 10.125 1.375C7.63972 1.375 5.625 3.38972 5.625 5.875C5.625 8.36028 7.63972 10.375 10.125 10.375Z" stroke="#D63384" stroke-width="2" stroke-linecap="round" stroke-linejoin="round"/>
<path d="M19.125 10.375H25.875" stroke="#D63384" stroke-width="2" stroke-linecap="round" stroke-linejoin="round"/>
<path d="M22.5 7V13.75" stroke="#D63384" stroke-width="2" stroke-linecap="round" stroke-linejoin="round"/>
</svg>
